<svg xmlns="http://www.w3.org/2000/svg" viewBox="0 0 112 106">
  <!-- Clean Circular Background -->
  <circle cx="56" cy="53" r="53" fill="#1E3A8A"/>
  
  <!-- Icon Group: Solid Yellow -->
  <g fill="#FACC15">
    <!-- Fixed Clean Heart (Symmetrical) -->
    <path d="M57.5 50.5 C43 38 41 28 46 23 C50.5 18.5 57.5 21 57.5 27 C57.5 21 64.5 18.5 69 23 C74 28 72 38 57.5 50.5 Z" />
    
    <!-- Preserved Hand Detail -->
    <path d="M26.344507,66.677849 
      C37.944160,62.246574 48.942703,56.214687 61.832218,58.724239 
      C64.145172,59.174564 67.204262,58.802750 66.727043,61.992775 
      C66.513748,63.418533 63.752895,65.045944 61.885750,65.498093 
      C59.397472,66.100655 56.653400,65.646927 54.060852,66.256332 
      C58.060276,69.154083 66.948524,68.906990 70.342026,66.470154 
      C73.454079,64.235413 76.529823,61.949524 79.600601,59.658085 
      C81.926270,57.922661 84.721481,57.467567 86.023819,60.105339 
      C86.795097,61.667461 86.118019,65.142654 84.804405,66.316566 
      C80.476318,70.184380 75.726364,73.659592 70.797340,76.739769 
      C68.548088,78.145340 65.513458,78.821335 62.813053,78.884224 
      C52.486382,79.124748 42.142002,78.731308 31.822392,79.092819 
      C27.024342,79.260902 25.512003,77.557335 26.067310,73.082283 
      C26.312037,71.110107 26.166452,69.089493 26.344507,66.677849 
      z"/>
  </g>
</svg>